HIERARCHY
ROOT Hips
{
	OFFSET 0.000000 0.000000 0.000000
	CHANNELS 6 Xposition Yposition Zposition Xrotation Yrotation Zrotation
	JOINT LeftUpLeg_virtual
	{
		OFFSET 0.000000 0.000000 0.000000
		CHANNELS 3 Xrotation Yrotation Zrotation
		JOINT LeftUpLeg
		{
			OFFSET 13.026900 -6.336304 -1.092800
			CHANNELS 3 Xrotation Yrotation Zrotation
			JOINT LeftLeg
			{
				OFFSET 0.524474 -46.096886 9.782700
				CHANNELS 3 Xrotation Yrotation Zrotation
				JOINT LeftFoot
				{
					OFFSET -0.524474 -53.427422 -12.948200
					CHANNELS 3 Xrotation Yrotation Zrotation
					JOINT LeftToeBase
					{
						OFFSET 0.192200 -14.009700 16.364100
						CHANNELS 3 Xrotation Yrotation Zrotation
						JOINT LeftToe_End
						{
							OFFSET -1.784700 -0.561700 9.474800
							CHANNELS 3 Xrotation Yrotation Zrotation
							End Site
							{
								OFFSET 0 0 0
							}
						}
					}
				}
			}
		}
	}
	JOINT RightUpLeg_virtual
	{
		OFFSET 0.000000 0.000000 0.000000
		CHANNELS 3 Xrotation Yrotation Zrotation
		JOINT RightUpLeg
		{
			OFFSET -12.883000 -6.336304 -1.092800
			CHANNELS 3 Xrotation Yrotation Zrotation
			JOINT RightLeg
			{
				OFFSET -0.524587 -46.096825 9.782800
				CHANNELS 3 Xrotation Yrotation Zrotation
				JOINT RightFoot
				{
					OFFSET 0.524587 -53.427383 -12.948300
					CHANNELS 3 Xrotation Yrotation Zrotation
					JOINT RightToeBase
					{
						OFFSET -0.192200 -14.009700 16.364100
						CHANNELS 3 Xrotation Yrotation Zrotation
						JOINT RightToe_End
						{
							OFFSET 1.784700 -0.561700 9.474800
							CHANNELS 3 Xrotation Yrotation Zrotation
							End Site
							{
								OFFSET 0 0 0
							}
						}
					}
				}
			}
		}
	}
	JOINT Spine_virtual
	{
		OFFSET 0.000000 0.000000 0.000000
		CHANNELS 3 Xrotation Yrotation Zrotation
		JOINT Spine
		{
			OFFSET 0.072000 7.257294 -0.789700
			CHANNELS 3 Xrotation Yrotation Zrotation
			JOINT Spine1
			{
				OFFSET 0.000000 12.508769 -0.658067
				CHANNELS 3 Xrotation Yrotation Zrotation
				JOINT Spine1_split
				{
					OFFSET 0.000000 12.508769 -0.658067
					CHANNELS 3 Xrotation Yrotation Zrotation
					JOINT Spine2
					{
						OFFSET 0.000000 12.508769 -0.658067
						CHANNELS 3 Xrotation Yrotation Zrotation
						JOINT Neck_virtual
						{
							OFFSET 0.000000 0.000000 0.000000
							CHANNELS 3 Xrotation Yrotation Zrotation
							JOINT Neck
							{
								OFFSET 0.000000 14.033295 7.520400
								CHANNELS 3 Xrotation Yrotation Zrotation
								JOINT Head
								{
									OFFSET 0.000000 8.198502 5.703100
									CHANNELS 3 Xrotation Yrotation Zrotation
									JOINT HeadTop_End
									{
										OFFSET 0.000000 17.760803 13.332701
										CHANNELS 3 Xrotation Yrotation Zrotation
										End Site
										{
											OFFSET 0 0 0
										}
									}
								}
							}
						}
						JOINT LeftShoulder_virtual
						{
							OFFSET 0.000000 0.000000 0.000000
							CHANNELS 3 Xrotation Yrotation Zrotation
							JOINT LeftShoulder
							{
								OFFSET 6.292450 5.785301 -0.669000
								CHANNELS 3 Xrotation Yrotation Zrotation
								JOINT LeftShoulder_split
								{
									OFFSET 6.292450 5.785301 -0.669000
									CHANNELS 3 Xrotation Yrotation Zrotation
									JOINT LeftArm
									{
										OFFSET 13.907140 -6.093903 1.965100
										CHANNELS 3 Xrotation Yrotation Zrotation
										JOINT LeftForeArm
										{
											OFFSET 34.140198 0.000000 0.000000
											CHANNELS 3 Xrotation Yrotation Zrotation
											JOINT LeftHand
											{
												OFFSET 40.960209 0.000000 0.000000
												CHANNELS 3 Xrotation Yrotation Zrotation
												End Site
												{
													OFFSET 0 0 0
												}
											}
										}
									}
								}
							}
						}
						JOINT RightShoulder_virtual
						{
							OFFSET 0.000000 0.000000 0.000000
							CHANNELS 3 Xrotation Yrotation Zrotation
							JOINT RightShoulder
							{
								OFFSET -6.292450 5.785301 -0.669000
								CHANNELS 3 Xrotation Yrotation Zrotation
								JOINT RightShoulder_split
								{
									OFFSET -6.292450 5.785301 -0.669000
									CHANNELS 3 Xrotation Yrotation Zrotation
									JOINT RightArm
									{
										OFFSET -13.907140 -6.093903 1.965100
										CHANNELS 3 Xrotation Yrotation Zrotation
										JOINT RightForeArm
										{
											OFFSET -34.140198 0.000000 0.000000
											CHANNELS 3 Xrotation Yrotation Zrotation
											JOINT RightHand
											{
												OFFSET -40.960209 0.000000 0.000000
												CHANNELS 3 Xrotation Yrotation Zrotation
												End Site
												{
													OFFSET 0 0 0
												}
											}
										}
									}
								}
							}
						}
					}
				}
			}
		}
	}
}
MOTION
Frames: 11
Frame Time: 0.03333333
7.092075 107.957977 134.679657 0.000000 0.000000 0.000000 22.277934 26.193673 -7.508991 -44.458808 8.599709 15.475250 42.512873 11.468116 -4.522497 0.180074 28.541241 -7.115614 -7.985877 0.204510 -0.893673 0.000000 0.000000 0.000000 23.621723 25.125894 -8.348859 -55.220870 -6.605683 -3.592159 33.036939 -5.562880 -4.595225 1.195169 -6.509888 5.007849 0.681959 -0.220929 0.033423 0.000000 0.000000 0.000000 21.746902 22.121053 -7.087787 11.625304 -1.099775 3.225534 8.423309 -2.640223 0.614332 0.676902 3.503390 0.045277 0.000000 0.000000 0.000000 8.795491 -2.852491 0.490541 -6.178382 0.196355 2.815364 -20.640926 0.855850 1.864043 0.000000 0.000000 0.000000 9.008342 -2.918200 0.590661 0.680138 -8.967909 -6.438078 4.243713 -4.507863 0.888991 -26.711432 -22.849455 -31.631077 0.045961 -25.803399 0.064434 0.000000 0.000000 0.000000 9.321849 -2.619181 0.809403 2.108699 5.385700 4.571960 4.200562 3.394547 -0.865192 -16.923658 -8.452604 54.220063 1.010885 64.043016 -1.291321 0.000000 0.000000 0.000000 
7.651708 111.384750 137.823807 0.000000 0.000000 0.000000 23.098113 28.691917 -8.296639 -46.188591 8.456283 12.957986 35.679839 10.868765 -4.062541 3.923152 27.995897 -9.036932 -7.320451 -0.049302 -0.273259 0.000000 0.000000 0.000000 24.207666 28.049838 -9.133649 -48.302015 -8.978121 -3.491952 26.470246 -6.145082 -5.030816 0.677466 -7.916783 5.738547 0.043669 -0.118133 0.195556 0.000000 0.000000 0.000000 22.183920 23.882055 -7.582826 11.112197 0.046270 3.142003 8.764997 -2.353403 0.655537 0.579015 3.923062 -0.035551 0.000000 0.000000 0.000000 9.048820 -2.585098 0.551177 -5.600397 -0.236143 2.181590 -23.136907 -1.933525 0.644387 0.000000 0.000000 0.000000 9.284198 -2.643094 0.503321 0.907489 -8.608635 -6.445178 4.606897 -4.595915 0.849886 -23.967588 -23.290337 -31.390665 0.395960 -24.662602 0.235926 0.000000 0.000000 0.000000 9.747464 -2.278730 0.848256 2.097504 5.694912 4.780336 3.837561 3.183507 -0.688587 -18.696845 -9.693398 55.443497 0.116276 68.137516 -0.591579 0.000000 0.000000 0.000000 
8.314919 112.899994 140.889099 0.000000 0.000000 0.000000 23.351536 30.468425 -8.956424 -47.837545 8.134554 11.284150 30.361646 10.839876 -3.884623 6.870074 28.173408 -9.879656 -5.660640 -0.177167 0.008411 0.000000 0.000000 0.000000 24.322824 30.397388 -9.787453 -42.365669 -11.170532 -3.196159 22.794918 -6.421761 -5.286171 -1.025230 -9.458383 6.475015 -0.887164 0.032254 0.203591 0.000000 0.000000 0.000000 21.976441 25.600435 -7.962538 10.684012 1.090769 3.241094 9.017153 -2.016075 0.532757 0.360575 4.182475 -0.288676 0.000000 0.000000 0.000000 9.163419 -2.305859 0.478506 -5.248729 -0.505477 1.232413 -25.454616 -4.691093 -0.675566 0.000000 0.000000 0.000000 9.562886 -2.345267 0.299101 1.100900 -7.863224 -6.327266 4.527485 -4.617273 0.794270 -21.197755 -22.771258 -31.095717 0.762745 -25.584499 0.478417 0.000000 0.000000 0.000000 10.119329 -1.942676 0.720482 2.046355 6.209068 4.947985 3.466667 3.025302 -0.468919 -19.277034 -10.207673 56.904471 -0.822295 72.918574 0.233825 0.000000 0.000000 0.000000 
9.013801 112.352501 143.908340 0.000000 0.000000 0.000000 22.793625 31.555194 -9.367146 -49.589383 7.649864 10.155774 27.457702 11.141107 -3.783043 8.357309 28.720058 -9.299985 -4.268336 -0.227896 0.235865 0.000000 0.000000 0.000000 23.951088 32.235235 -10.249953 -37.753625 -12.911876 -2.735382 22.929913 -6.465723 -5.273765 -4.513164 -11.155404 6.713971 -1.344204 0.208163 0.029838 0.000000 0.000000 0.000000 21.225697 27.465415 -8.306960 10.350833 2.062073 3.436751 9.087017 -1.564705 0.243376 0.309505 4.258205 -0.408973 0.000000 0.000000 0.000000 9.109320 -1.953400 0.257548 -5.155929 -0.804058 0.118580 -27.226148 -7.510995 -1.811056 0.000000 0.000000 0.000000 9.733452 -1.960154 0.010777 1.256405 -6.786710 -5.995607 4.148392 -4.655870 0.858175 -18.653807 -21.300351 -30.787761 1.098737 -28.826301 0.728061 0.000000 0.000000 0.000000 10.353298 -1.531963 0.435912 1.963756 6.957977 4.975029 3.165731 2.958064 -0.315983 -18.898725 -9.809573 58.670779 -1.400722 77.491577 0.764974 0.000000 0.000000 0.000000 
9.705674 110.265854 147.094543 0.000000 0.000000 0.000000 21.615679 32.344422 -9.578090 -51.700895 7.027867 9.397284 27.254089 11.398110 -3.818682 8.809858 28.764631 -7.896990 -3.896731 -0.212117 0.449784 0.000000 0.000000 0.000000 23.095733 33.458170 -10.523333 -34.403400 -14.069002 -2.146221 26.411010 -6.287088 -4.964405 -9.394965 -12.870838 6.480738 -1.431042 0.348984 -0.273602 0.000000 0.000000 0.000000 20.250912 29.556766 -8.661914 10.046529 2.965058 3.557275 8.894906 -0.992856 -0.143624 0.541152 4.178609 -0.452548 0.000000 0.000000 0.000000 8.874280 -1.453076 -0.073739 -5.273571 -1.190759 -0.975055 -28.272605 -10.444032 -2.485226 0.000000 0.000000 0.000000 9.696446 -1.418761 -0.304529 1.357392 -5.499341 -5.403549 3.646750 -4.607990 0.804877 -16.545635 -19.250260 -30.469539 1.281758 -33.933001 0.885416 0.000000 0.000000 0.000000 10.321190 -1.000205 0.063694 1.850211 7.878423 4.829950 2.963485 3.006607 -0.264523 -18.074986 -8.857308 60.608401 -1.138987 81.156977 0.440605 0.000000 0.000000 0.000000 
10.510997 107.797997 150.474930 0.000000 0.000000 0.000000 20.153564 33.230161 -9.746023 -53.956930 6.574624 9.082412 29.191405 11.532159 -4.058764 8.976895 27.899948 -6.019342 -4.731380 -0.192225 0.729368 0.000000 0.000000 0.000000 21.997449 34.647965 -10.744164 -31.859352 -14.877960 -1.510170 31.655731 -5.866651 -4.502558 -14.582862 -14.385869 5.994122 -1.489759 0.450893 -0.644437 0.000000 0.000000 0.000000 19.341287 31.882954 -9.101947 9.639458 3.743735 3.434349 8.380881 -0.311038 -0.530292 0.752969 3.829545 -0.429235 0.000000 0.000000 0.000000 8.459858 -0.803602 -0.433150 -5.453298 -1.804587 -1.942306 -28.416015 -13.533366 -2.504736 0.000000 0.000000 0.000000 9.333581 -0.704750 -0.567855 1.397025 -4.231779 -4.607432 3.087956 -4.575389 0.589238 -14.945706 -17.038231 -30.027345 1.251492 -39.955842 0.913687 0.000000 0.000000 0.000000 9.916551 -0.351822 -0.317717 1.729652 8.775648 4.496214 2.913094 2.977000 -0.323447 -17.399507 -7.829835 62.516838 0.681550 83.812801 -1.498970 0.000000 0.000000 0.000000 
11.449043 105.952034 154.311981 0.000000 0.000000 0.000000 18.864513 34.350719 -10.072395 -55.964487 6.379837 8.864884 32.395191 11.720174 -4.372943 9.468982 26.396043 -4.095463 -5.210102 -0.132404 0.624969 0.000000 0.000000 0.000000 20.933929 35.775090 -11.021729 -29.418349 -15.680986 -0.779687 36.348996 -5.134632 -4.081993 -18.674325 -15.418046 5.483192 -1.904989 0.531606 -0.938149 0.000000 0.000000 0.000000 18.635155 34.283909 -9.697500 9.005673 4.346453 2.969679 7.539749 0.406439 -0.832110 1.053296 3.478321 -0.153976 0.000000 0.000000 0.000000 7.860002 -0.054151 -0.756985 -5.600810 -2.603618 -2.697835 -27.596906 -16.680396 -1.764639 0.000000 0.000000 0.000000 8.639961 0.097513 -0.735915 1.355729 -3.098226 -3.740177 2.581991 -4.574047 0.336369 -13.993318 -15.244858 -29.457745 1.039336 -45.771878 0.838297 0.000000 0.000000 0.000000 9.134062 0.345020 -0.636856 1.605010 9.379609 4.019139 3.045014 2.687370 -0.530949 -17.010494 -7.085009 64.310452 4.460005 85.647608 -5.459241 0.000000 0.000000 0.000000 
12.632080 105.352722 158.343292 0.000000 0.000000 0.000000 18.033158 35.729481 -10.573395 -56.839625 6.609466 8.767431 35.265431 12.132008 -4.608933 9.854856 24.604776 -2.212532 -4.538894 -0.024490 0.113240 0.000000 0.000000 0.000000 20.034963 36.734646 -11.361425 -26.526969 -16.692071 0.085014 38.819831 -4.255903 -3.808131 -20.939017 -15.918657 4.900986 -3.044262 0.582160 -1.040957 0.000000 0.000000 0.000000 18.263654 36.346442 -10.450615 8.112487 4.688262 2.181882 6.461045 1.058445 -1.012239 1.233076 3.176459 0.062818 0.000000 0.000000 0.000000 7.128567 0.703568 -1.004204 -5.579152 -3.439022 -3.185431 -25.913965 -19.680026 -0.321854 0.000000 0.000000 0.000000 7.679396 0.887643 -0.809117 1.228945 -2.255856 -2.924450 2.139927 -4.645878 0.065960 -13.493762 -14.440456 -28.748580 0.745135 -50.798828 0.740647 0.000000 0.000000 0.000000 8.013040 0.983604 -0.862387 1.464618 9.497607 3.587235 3.291029 2.288958 -0.800824 -16.801480 -6.828865 66.040799 9.574922 86.868436 -10.747878 0.000000 0.000000 0.000000 
14.151240 106.099899 162.584213 0.000000 0.000000 0.000000 17.526960 37.093316 -11.108924 -55.856478 7.361107 8.870565 36.346773 12.502485 -4.473431 9.601093 22.641988 -0.720866 -3.741597 0.055600 -0.323431 0.000000 0.000000 0.000000 19.438968 37.596503 -11.770376 -23.367189 -17.965247 0.932697 38.854702 -3.363826 -3.710154 -20.917386 -15.999841 4.177141 -5.059019 0.610805 -0.971755 0.000000 0.000000 0.000000 17.990626 37.963643 -11.230691 7.002401 4.669940 1.177776 5.288218 1.558437 -1.117811 1.384355 2.892459 0.239684 0.000000 0.000000 0.000000 6.291489 1.328843 -1.175661 -5.408840 -4.241886 -3.426524 -23.476644 -22.234072 1.688830 0.000000 0.000000 0.000000 6.552593 1.532230 -0.836128 1.010504 -1.786949 -2.267917 1.608547 -4.910215 -0.075470 -13.276537 -14.885684 -28.074161 0.615055 -55.026661 0.783620 0.000000 0.000000 0.000000 6.742320 1.472011 -1.016201 1.312186 9.034634 3.282310 3.497548 1.903346 -1.023502 -16.252157 -6.728529 67.771896 14.217304 87.543614 -15.455422 0.000000 0.000000 0.000000 
15.969838 107.703369 166.965240 0.000000 0.000000 0.000000 17.169859 38.277200 -11.500409 -53.026696 8.270327 9.100438 35.618234 12.438590 -3.911037 8.616583 20.379365 -0.165143 -3.653624 0.045952 -0.422565 0.000000 0.000000 0.000000 19.079164 38.149069 -12.123257 -20.798196 -19.278439 1.446651 37.676710 -2.306685 -3.613770 -18.337222 -15.780920 3.737728 -8.011098 0.582370 -0.806881 0.000000 0.000000 0.000000 17.478903 38.974589 -11.788487 5.957119 4.253064 0.157389 4.206688 1.817970 -1.206870 1.635967 2.651787 0.362945 0.000000 0.000000 0.000000 5.423035 1.715190 -1.309555 -5.194761 -4.786348 -3.421373 -20.641479 -23.954563 4.015590 0.000000 0.000000 0.000000 5.469642 1.909832 -0.892301 0.697078 -1.619919 -1.745019 1.264334 -4.930121 -0.027631 -13.275453 -16.586790 -27.711290 0.798832 -58.668463 1.044375 0.000000 0.000000 0.000000 5.534222 1.732901 -1.127584 1.144159 8.091381 3.177495 3.539676 1.759283 -1.253032 -14.887343 -6.464311 69.566993 13.232624 87.576016 -14.360136 0.000000 0.000000 0.000000 
18.025215 109.581474 171.231033 0.000000 0.000000 0.000000 16.766091 39.294871 -11.626195 -48.953663 9.072406 9.571077 33.773523 11.551026 -3.155571 7.325311 17.829160 -1.015679 -4.321584 -0.075506 -0.114398 0.000000 0.000000 0.000000 18.882423 38.801854 -12.490475 -19.958709 -20.380426 1.230966 37.075250 -0.854417 -3.484405 -13.751479 -15.201073 4.178256 -11.497105 0.494509 -0.683042 0.000000 0.000000 0.000000 16.651241 39.457511 -11.959366 5.244304 3.390780 -0.695038 3.381005 1.791244 -1.335682 1.727766 2.345107 0.242126 0.000000 0.000000 0.000000 4.635856 1.777963 -1.426448 -5.120563 -5.017860 -3.256846 -17.844272 -24.605483 6.321695 0.000000 0.000000 0.000000 4.581727 1.968944 -1.010885 0.312255 -1.724575 -1.141051 1.163726 -4.697227 0.074093 -13.488973 -19.092448 -27.822731 1.343169 -61.936388 1.520493 0.000000 0.000000 0.000000 4.573850 1.722477 -1.242305 0.974597 6.887979 3.105587 3.243331 1.973556 -1.301492 -12.409174 -5.886137 71.169014 6.718053 86.822325 -7.582370 0.000000 0.000000 0.000000 
